<svg xmlns="http://www.w3.org/2000/svg" viewBox="0 0 180 140" fill="none">
  <defs>
    <!-- Cyan to Electric Blue Gradient for Left Mountain Chevron -->
    <linearGradient id="nexusCyanGradient" x1="0%" y1="100%" x2="60%" y2="0%">
      <stop offset="0%" stop-color="#00F2FE" />
      <stop offset="50%" stop-color="#00C0FA" />
      <stop offset="100%" stop-color="#007CF0" />
    </linearGradient>

    <!-- Deep Royal Blue for Bottom Chevron Leg -->
    <linearGradient id="nexusBlueGradient" x1="0%" y1="100%" x2="100%" y2="0%">
      <stop offset="0%" stop-color="#0052FF" />
      <stop offset="60%" stop-color="#1E6BFF" />
      <stop offset="100%" stop-color="#4A88FF" />
    </linearGradient>

    <!-- Arrow Stem Gradient (Deep Blue into Bloomberg Orange) -->
    <linearGradient id="nexusArrowStemGradient" x1="0%" y1="100%" x2="100%" y2="0%">
      <stop offset="0%" stop-color="#005BFF" />
      <stop offset="35%" stop-color="#3B82F6" />
      <stop offset="70%" stop-color="#D97706" />
      <stop offset="100%" stop-color="#FF6B00" />
    </linearGradient>

    <!-- Bloomberg / Amber Orange Gradient for the Arrowhead -->
    <linearGradient id="nexusOrangeGradient" x1="0%" y1="100%" x2="100%" y2="0%">
      <stop offset="0%" stop-color="#FF5500" />
      <stop offset="50%" stop-color="#FF6B00" />
      <stop offset="100%" stop-color="#FFA000" />
    </linearGradient>
  </defs>

  <!-- 1. Outer / Left Cyan Peak Chevron -->
  <path
    d="M 4 128 L 4 85 L 61 10 L 109 68 L 96 82 L 61 36 L 20 89 L 20 113 Z"
    fill="url(#nexusCyanGradient)"
  />

  <!-- 2. Lower Parallel Blue Chevron returning upwards -->
  <path
    d="M 61 54 L 108 111 L 152 59 L 166 59 L 108 130 L 61 74 Z"
    fill="url(#nexusBlueGradient)"
  />

  <!-- 3. Ascending Arrow Stem (parallel to left slope) -->
  <path
    d="M 108 111 L 148 57 L 136 47 L 96 100 Z"
    fill="url(#nexusArrowStemGradient)"
  />

  <!-- 4. Precision Breakout Arrowhead -->
  <polygon
    points="174,4 133,16 148,29 156,38 168,43"
    fill="url(#nexusOrangeGradient)"
  />
</svg>
